<?xml version="1.0" encoding="utf-8"?>
<!-- Generator: Adobe Illustrator 26.0.2, SVG Export Plug-In . SVG Version: 6.00 Build 0)  -->
<svg version="1.1" id="Layer_1" xmlns="http://www.w3.org/2000/svg" xmlns:xlink="http://www.w3.org/1999/xlink" x="0px" y="0px"
	 viewBox="0 0 50 50" style="enable-background:new 0 0 50 50;" xml:space="preserve">
<style type="text/css">
	.st0{fill:#B8C9DB;}
</style>
<g>
	<path class="st0" d="M18.5,25.8c-0.6,0.6-0.6,1.7,0,2.3c0.6,0.6,1.7,0.6,2.3,0l2.7-2.7v9.3c0,0.9,0.7,1.7,1.7,1.7
		c0.9,0,1.7-0.7,1.7-1.7v-9.3l2.7,2.7c0.6,0.6,1.7,0.6,2.3,0c0.6-0.6,0.7-1.7,0-2.3l-5.5-5.5c-0.6-0.7-1.7-0.7-2.3,0L18.5,25.8
		L18.5,25.8z M13,40.8c-5.5,0-9.9-4.5-9.9-9.9c0-4.3,2.8-8,6.6-9.4c0-0.2,0-0.4,0-0.6c0-6.1,4.9-11.1,11.1-11.1
		c4.1,0,7.7,2.2,9.6,5.5c1-0.7,2.3-1.1,3.7-1.1c3.7,0,6.6,3,6.6,6.6c0,0.8-0.2,1.6-0.4,2.4c4,0.8,7.1,4.4,7.1,8.7
		c0,4.9-4,8.8-8.8,8.8H13z"/>
</g>
</svg>
