<?xml version="1.0" encoding="UTF-8" standalone="no"?>
<!-- Generator: Adobe Illustrator 26.0.2, SVG Export Plug-In . SVG Version: 6.00 Build 0)  -->

<svg
   xmlns:dc="http://purl.org/dc/elements/1.1/"
   xmlns:cc="http://creativecommons.org/ns#"
   xmlns:rdf="http://www.w3.org/1999/02/22-rdf-syntax-ns#"
   xmlns:svg="http://www.w3.org/2000/svg"
   xmlns="http://www.w3.org/2000/svg"
   xmlns:sodipodi="http://sodipodi.sourceforge.net/DTD/sodipodi-0.dtd"
   xmlns:inkscape="http://www.inkscape.org/namespaces/inkscape"
   version="1.1"
   id="Layer_1"
   x="0px"
   y="0px"
   viewBox="0 0 262 78.400002"
   xml:space="preserve"
   sodipodi:docname="finto-ai-logo-vaaka.svg"
   width="262"
   height="78.400002"
   inkscape:version="0.92.5 (2060ec1f9f, 2020-04-08)"><metadata
   id="metadata15"><rdf:RDF><cc:Work
       rdf:about=""><dc:format>image/svg+xml</dc:format><dc:type
         rdf:resource="http://purl.org/dc/dcmitype/StillImage" /><dc:title></dc:title></cc:Work></rdf:RDF></metadata><defs
   id="defs13" /><sodipodi:namedview
   pagecolor="#ffffff"
   bordercolor="#666666"
   borderopacity="1"
   objecttolerance="10"
   gridtolerance="10"
   guidetolerance="10"
   inkscape:pageopacity="0"
   inkscape:pageshadow="2"
   inkscape:window-width="1855"
   inkscape:window-height="1176"
   id="namedview11"
   showgrid="false"
   fit-margin-top="0"
   fit-margin-left="0"
   fit-margin-right="0"
   fit-margin-bottom="0"
   inkscape:zoom="2.6866667"
   inkscape:cx="150.0074"
   inkscape:cy="13.553147"
   inkscape:window-x="65"
   inkscape:window-y="24"
   inkscape:window-maximized="1"
   inkscape:current-layer="Layer_1" />
<style
   type="text/css"
   id="style2">
	.st0{fill:#B8C9DB;}
	.st1{fill:#FFFFFF;}
</style>
<g
   id="g8"
   transform="translate(-19,-25.8)">
	<path
   class="st0"
   d="m 222.8,86 c 0,-5.1 -1.8,-9.5 -5.3,-13 -3.6,-3.5 -8,-5.3 -13.1,-5.3 -5.1,0 -9.5,1.7 -13,5.2 -3.6,3.5 -5.4,7.7 -5.4,12.7 0,5.3 1.8,9.7 5.3,13.2 3.5,3.5 7.8,5.3 13,5.3 5.2,0 9.6,-1.7 13.2,-5.2 3.5,-3.4 5.3,-7.7 5.3,-12.9 m -8.1,0 c 0,3.4 -0.9,6 -2.8,8.1 -1.9,2 -4.4,3 -7.5,3 -3.1,0 -5.6,-1 -7.5,-3.1 -1.8,-2 -2.8,-4.7 -2.8,-8.2 0,-3.2 0.9,-5.8 2.8,-7.9 1.9,-2 4.4,-3 7.4,-3 3.1,0 5.6,1 7.5,3 1.9,2.1 2.9,4.8 2.9,8.1 m -36.3,-9.9 h 7.6 v -7.4 h -7.6 V 56 h -8 v 12.7 h -4 v 7.4 h 4 v 27.1 h 8 z m -23.5,27.1 h 8 V 82 c 0,-4.9 -1,-8.4 -2.9,-10.5 -2.2,-2.5 -5.4,-3.8 -9.4,-3.8 -3.5,0 -6.6,1.4 -9.4,4.1 v -3.2 h -8 v 34.5 h 8 V 86.6 c 0,-4.3 0.5,-7.3 1.6,-9 1.1,-1.7 3,-2.6 5.6,-2.6 2.4,0 4.1,0.7 5,2 1,1.3 1.4,3.6 1.4,7 v 19.2 z m -37.6,0 h 8 V 68.7 h -8 z m 0,-43.6 h 8 v -3.2 c 0,-3.9 -1.4,-7.2 -4.1,-9.9 -2.7,-2.8 -6,-4.1 -9.9,-4.1 -3.9,0 -7.2,1.4 -10,4.1 -2.7,2.7 -4.1,6 -4.1,9.9 v 12.3 h -2.8 v 7.4 h 2.8 v 27.1 h 8 V 76.1 h 8.7 v -7.4 h -8.7 V 56.3 c 0,-1.8 0.6,-3.3 1.7,-4.6 1.2,-1.3 2.6,-2 4.4,-2 1.8,0 3.2,0.7 4.4,2 1.1,1.3 1.7,2.9 1.7,4.6 v 3.3 z m -33,16.5 h 6.4 v -7.4 h -6.4 z m -10.2,0 h 4.3 v -7.4 h -4.3 z m -11,0 H 67 v -7.4 h -3.8 v 7.4 z m -11,0 h 3.5 v -7.4 h -3.5 z m -10.7,0 H 44 v -7.4 h -2.6 z m -11.2,0 h 2.6 v -7.4 h -2.6 z m -11.2,0 h 2.6 V 68.7 H 19 Z"
   id="path4"
   inkscape:connector-curvature="0"
   style="fill:#b8c9db" />
	<path
   class="st1"
   d="m 281,68.5 h -8 v 34.8 h 8 z m -7.7,-5.4 h 7.4 v -7 h -7.4 z m 0,-12.9 h 7.4 v -4.3 h -7.4 z m 0,-11.4 h 7.4 v -2.9 h -7.4 z m 0,-10.5 h 7.4 v -2.5 h -7.4 z m -16,75 h 7.8 V 68.5 h -7.8 v 4.2 c -2.7,-3.5 -7.5,-5 -11.7,-5 -5.1,0 -9.5,1.7 -13,5.3 -3.6,3.5 -5.3,7.7 -5.3,12.7 0,5.3 1.8,9.7 5.2,13.2 3.5,3.5 7.8,5.3 13,5.3 4.6,0 8.7,-1.5 11.9,-4.8 z m -0.6,-17.2 c 0,3.4 -1.1,6 -3,8 -1.9,2 -4.5,3 -7.8,3 -3.2,0 -5.8,-1 -7.8,-3 -1.9,-2 -2.9,-4.7 -2.9,-8.2 0,-3.2 1,-5.8 2.9,-7.9 2,-2 4.5,-3 7.7,-3 3.2,0 5.8,1 7.8,3 2,2 3.1,4.7 3.1,8.1"
   id="path6"
   inkscape:connector-curvature="0"
   style="fill:#ffffff" />
</g>
</svg>