<?xml version="1.0" encoding="utf-8"?>
<!-- Generator: Adobe Illustrator 26.0.2, SVG Export Plug-In . SVG Version: 6.00 Build 0)  -->
<svg version="1.1" id="Layer_1" xmlns="http://www.w3.org/2000/svg" xmlns:xlink="http://www.w3.org/1999/xlink" x="0px" y="0px"
	 viewBox="0 0 300 130" style="enable-background:new 0 0 300 130;" xml:space="preserve">
<style type="text/css">
	.st0{fill:#B8C9DB;}
	.st1{fill:#FFFFFF;}
</style>
<g>
	<path class="st0" d="M222.8,86c0-5.1-1.8-9.5-5.3-13c-3.6-3.5-8-5.3-13.1-5.3c-5.1,0-9.5,1.7-13,5.2c-3.6,3.5-5.4,7.7-5.4,12.7
		c0,5.3,1.8,9.7,5.3,13.2c3.5,3.5,7.8,5.3,13,5.3c5.2,0,9.6-1.7,13.2-5.2C221,95.5,222.8,91.2,222.8,86 M214.7,86
		c0,3.4-0.9,6-2.8,8.1c-1.9,2-4.4,3-7.5,3c-3.1,0-5.6-1-7.5-3.1c-1.8-2-2.8-4.7-2.8-8.2c0-3.2,0.9-5.8,2.8-7.9c1.9-2,4.4-3,7.4-3
		c3.1,0,5.6,1,7.5,3C213.7,80,214.7,82.7,214.7,86 M178.4,76.1h7.6v-7.4h-7.6V56h-8v12.7h-4v7.4h4v27.1h8V76.1z M154.9,103.2h8V82
		c0-4.9-1-8.4-2.9-10.5c-2.2-2.5-5.4-3.8-9.4-3.8c-3.5,0-6.6,1.4-9.4,4.1v-3.2h-8v34.5h8V86.6c0-4.3,0.5-7.3,1.6-9
		c1.1-1.7,3-2.6,5.6-2.6c2.4,0,4.1,0.7,5,2c1,1.3,1.4,3.6,1.4,7V103.2z M117.3,103.2h8V68.7h-8V103.2z M117.3,59.6h8v-3.2
		c0-3.9-1.4-7.2-4.1-9.9c-2.7-2.8-6-4.1-9.9-4.1c-3.9,0-7.2,1.4-10,4.1c-2.7,2.7-4.1,6-4.1,9.9v12.3h-2.8v7.4h2.8v27.1h8V76.1h8.7
		v-7.4h-8.7V56.3c0-1.8,0.6-3.3,1.7-4.6c1.2-1.3,2.6-2,4.4-2c1.8,0,3.2,0.7,4.4,2c1.1,1.3,1.7,2.9,1.7,4.6V59.6z M84.3,76.1h6.4
		v-7.4h-6.4V76.1z M74.1,76.1h4.3v-7.4h-4.3V76.1z M63.1,76.1H67v-7.4h-3.8V76.1z M52.1,76.1h3.5v-7.4h-3.5V76.1z M41.4,76.1h2.6
		v-7.4h-2.6V76.1z M30.2,76.1h2.6v-7.4h-2.6V76.1z M19,76.1h2.6v-7.4H19V76.1z"/>
	<path class="st1" d="M281,68.5h-8v34.8h8V68.5z M273.3,63.1h7.4v-7h-7.4V63.1z M273.3,50.2h7.4v-4.3h-7.4V50.2z M273.3,38.8h7.4
		v-2.9h-7.4V38.8z M273.3,28.3h7.4v-2.5h-7.4V28.3z M257.3,103.3h7.8V68.5h-7.8l0,4.2c-2.7-3.5-7.5-5-11.7-5c-5.1,0-9.5,1.7-13,5.3
		c-3.6,3.5-5.3,7.7-5.3,12.7c0,5.3,1.8,9.7,5.2,13.2c3.5,3.5,7.8,5.3,13,5.3c4.6,0,8.7-1.5,11.9-4.8L257.3,103.3z M256.7,86.1
		c0,3.4-1.1,6-3,8c-1.9,2-4.5,3-7.8,3c-3.2,0-5.8-1-7.8-3c-1.9-2-2.9-4.7-2.9-8.2c0-3.2,1-5.8,2.9-7.9c2-2,4.5-3,7.7-3
		c3.2,0,5.8,1,7.8,3C255.6,80,256.7,82.7,256.7,86.1"/>
</g>
</svg>
