<?xml version="1.0" encoding="UTF-8" standalone="no"?>
<!-- Generator: Adobe Illustrator 26.0.2, SVG Export Plug-In . SVG Version: 6.00 Build 0)  -->

<svg
   xmlns:dc="http://purl.org/dc/elements/1.1/"
   xmlns:cc="http://creativecommons.org/ns#"
   xmlns:rdf="http://www.w3.org/1999/02/22-rdf-syntax-ns#"
   xmlns:svg="http://www.w3.org/2000/svg"
   xmlns="http://www.w3.org/2000/svg"
   xmlns:sodipodi="http://sodipodi.sourceforge.net/DTD/sodipodi-0.dtd"
   xmlns:inkscape="http://www.inkscape.org/namespaces/inkscape"
   version="1.1"
   id="Layer_1"
   x="0px"
   y="0px"
   viewBox="0 0 1200 531"
   xml:space="preserve"
   sodipodi:docname="finto-ai-logo-social.svg"
   width="1200"
   height="531"
   inkscape:version="0.92.5 (2060ec1f9f, 2020-04-08)"
   inkscape:export-filename="/home/jmminkin/Pictures/fintoai-images/finto-ai-social.png"
   inkscape:export-xdpi="96"
   inkscape:export-ydpi="96"><metadata
   id="metadata15"><rdf:RDF><cc:Work
       rdf:about=""><dc:format>image/svg+xml</dc:format><dc:type
         rdf:resource="http://purl.org/dc/dcmitype/StillImage" /><dc:title></dc:title></cc:Work></rdf:RDF></metadata><defs
   id="defs13" /><sodipodi:namedview
   pagecolor="#ffffff"
   bordercolor="#666666"
   borderopacity="1"
   objecttolerance="10"
   gridtolerance="10"
   guidetolerance="10"
   inkscape:pageopacity="1"
   inkscape:pageshadow="2"
   inkscape:window-width="1855"
   inkscape:window-height="1176"
   id="namedview11"
   showgrid="false"
   fit-margin-top="0"
   fit-margin-left="0"
   fit-margin-right="0"
   fit-margin-bottom="0"
   inkscape:zoom="0.94988012"
   inkscape:cx="580.54531"
   inkscape:cy="155.32462"
   inkscape:window-x="1985"
   inkscape:window-y="24"
   inkscape:window-maximized="1"
   inkscape:current-layer="g821" />
<style
   type="text/css"
   id="style2">
	.st0{fill:#B8C9DB;}
	.st1{fill:#FFFFFF;}
</style>
<g
   id="g8"
   transform="translate(-19,426.8)">
	
	<g
   id="g817"
   transform="translate(66.3176,-105.80268)"><g
     id="g821"
     transform="matrix(1.2822718,0,0,1.2822718,-299.92408,-27.692717)"><g
       id="g863"
       transform="translate(-9.3583593)"><path
         style="fill:#002855;fill-opacity:1;stroke-width:4.07391119"
         inkscape:connector-curvature="0"
         id="path4"
         d="m 849.26315,30.054813 c 0,-20.7769488 -7.33306,-38.7021578 -21.59174,-52.960848 -14.66607,-14.258691 -32.59129,-21.591731 -53.36823,-21.591731 -20.77696,0 -38.70216,6.92565 -52.96086,21.18434 -14.66608,14.2586902 -21.99911,31.3691173 -21.99911,51.738674 0,21.591731 7.33303,39.516941 21.59172,53.77563 14.2587,14.25869 31.77651,21.591732 52.96086,21.591732 21.18433,0 39.10955,-6.925651 53.77562,-21.184341 14.25868,-13.851298 21.59174,-31.369117 21.59174,-52.553456 m -32.99869,0 c 0,13.851298 -3.66652,24.443468 -11.40696,32.998681 -7.74043,8.147823 -17.9252,12.221734 -30.55432,12.221734 -12.62914,0 -22.81391,-4.073911 -30.55434,-12.629124 -7.33304,-8.147823 -11.40695,-19.147384 -11.40695,-33.406073 0,-13.036517 3.66652,-23.6286872 11.40695,-32.1839007 7.74043,-8.1478223 17.9252,-12.2217343 30.14695,-12.2217343 12.62912,0 22.81389,4.073912 30.55432,12.2217343 7.74044,8.5552135 11.81435,19.5547747 11.81435,32.9986827 M 668.38148,-10.27691 h 30.96173 v -30.146945 h -30.96173 v -51.738674 h -32.5913 v 51.738674 h -16.29564 v 30.146945 h 16.29564 v 110.403 h 32.5913 z m -95.73693,110.403 h 32.59129 V 13.759166 c 0,-19.9621651 -4.07391,-34.220854 -11.81433,-42.776069 -8.9626,-10.184777 -21.99913,-15.480863 -38.29477,-15.480863 -14.25868,0 -26.88782,5.703477 -38.29477,16.703038 V -40.831246 H 484.24068 V 99.718699 h 32.59129 v -67.21954 c 0,-17.517818 2.03696,-29.7395519 6.51826,-36.6652016 4.4813,-6.9256494 12.22173,-10.5921704 22.81391,-10.5921704 9.77738,0 16.70303,2.851739 20.36955,8.147823 4.07391,5.2960858 5.70347,14.6660813 5.70347,28.517381 v 78.219099 z m -153.17907,0 h 32.5913 V -40.423855 h -32.5913 z m 0,-177.622538 h 32.5913 v -13.036517 c 0,-15.888255 -5.70348,-29.332165 -16.70303,-40.331725 -10.99956,-11.40695 -24.44348,-16.70303 -40.33173,-16.70303 -15.88826,0 -29.33216,5.70347 -40.73911,16.70303 -10.99957,10.99956 -16.70304,24.44347 -16.70304,40.331725 v 50.10911 h -11.40695 v 30.146945 h 11.40695 v 110.403 h 32.59129 v -110.403 h 35.44303 v -30.146945 h -35.44303 v -50.516501 c 0,-7.33304 2.44435,-13.443904 6.92565,-18.739994 4.88869,-5.29608 10.59218,-8.14782 17.92521,-8.14782 7.33304,0 13.03652,2.85174 17.92521,8.14782 4.4813,5.29609 6.92564,11.814344 6.92564,18.739994 v 13.443908 z M 288.14587,-10.27691 h 22.95358 v -30.146945 h -22.95358 z m -25.95658,0 h 12.83862 v -30.146945 h -12.83862 z"
         class="st0"
         sodipodi:nodetypes="ccscsssccccscscscccccccccccccccccscscccccssscscccccccccscscsccccccccccscscscccccccccccc" /><path
         inkscape:export-ydpi="400"
         inkscape:export-xdpi="400"
         style="fill:#5d7999;fill-opacity:0.99215686;stroke-width:4.07391119"
         inkscape:connector-curvature="0"
         id="path6"
         d="m 1086.3648,-41.238637 h -32.5913 V 100.53348 h 32.5913 z m -31.3691,-21.999121 h 30.1469 v -25.397917 h -30.1469 z m 0,-44.754792 h 30.1469 v -12.83863 h -30.1469 z m -65.18262,208.52603 h 31.77652 V -41.238637 h -31.77652 v 17.110429 c -10.99956,-14.25869 -30.55434,-20.369558 -47.66476,-20.369558 -20.77696,0 -38.70216,6.92565 -52.96084,21.591731 -14.66609,14.2586902 -21.59174,31.3691172 -21.59174,51.738674 0,21.591731 7.33304,39.516941 21.18435,53.77563 14.25868,14.25869 31.77649,21.591731 52.96084,21.591731 18.73998,0 35.44303,-6.110864 48.47954,-19.554775 z m -2.44435,-70.071276 c 0,13.851298 -4.4813,24.443468 -12.22173,32.59129 -7.74042,8.147823 -18.33261,12.221734 -31.77651,12.221734 -13.03651,0 -23.62869,-4.073911 -31.77651,-12.221734 -7.74043,-8.147822 -11.81434,-19.147383 -11.81434,-33.406072 0,-13.036517 4.07391,-23.6286872 11.81434,-32.1839007 8.14782,-8.1478223 18.33261,-12.2217343 31.36912,-12.2217343 13.03651,0 23.62869,4.073912 31.77651,12.2217343 8.14782,8.1478225 12.62912,19.1473837 12.62912,32.9986827"
         class="st1"
         sodipodi:nodetypes="ccccccccccccccccccccscscscccsscscssc" /></g></g></g>
</g>
</svg>