<?xml version="1.0" encoding="UTF-8" standalone="no"?>
<!-- Generator: Adobe Illustrator 26.0.2, SVG Export Plug-In . SVG Version: 6.00 Build 0)  -->

<svg
   xmlns:dc="http://purl.org/dc/elements/1.1/"
   xmlns:cc="http://creativecommons.org/ns#"
   xmlns:rdf="http://www.w3.org/1999/02/22-rdf-syntax-ns#"
   xmlns:svg="http://www.w3.org/2000/svg"
   xmlns="http://www.w3.org/2000/svg"
   xmlns:xlink="http://www.w3.org/1999/xlink"
   xmlns:sodipodi="http://sodipodi.sourceforge.net/DTD/sodipodi-0.dtd"
   xmlns:inkscape="http://www.inkscape.org/namespaces/inkscape"
   version="1.1"
   id="Layer_1"
   x="0px"
   y="0px"
   viewBox="0 0 39 27"
   style="enable-background:new 0 0 39 27;"
   xml:space="preserve"
   sodipodi:docname="melinda.svg"
   inkscape:version="0.92.5 (2060ec1f9f, 2020-04-08)"><metadata
   id="metadata891"><rdf:RDF><cc:Work
       rdf:about=""><dc:format>image/svg+xml</dc:format><dc:type
         rdf:resource="http://purl.org/dc/dcmitype/StillImage" /></cc:Work></rdf:RDF></metadata><defs
   id="defs889" /><sodipodi:namedview
   pagecolor="#ffffff"
   bordercolor="#666666"
   borderopacity="1"
   objecttolerance="10"
   gridtolerance="10"
   guidetolerance="10"
   inkscape:pageopacity="0"
   inkscape:pageshadow="2"
   inkscape:window-width="1855"
   inkscape:window-height="1176"
   id="namedview887"
   showgrid="false"
   inkscape:zoom="8.7407407"
   inkscape:cx="-2.4661017"
   inkscape:cy="13.5"
   inkscape:window-x="1985"
   inkscape:window-y="24"
   inkscape:window-maximized="1"
   inkscape:current-layer="Layer_1" />
<style
   type="text/css"
   id="style872">
	.st0{fill:#B8C9DB;}
	.st1{clip-path:url(#SVGID_00000014605617548314546870000011936971628441284284_);fill:#002855;}
</style>

<g
   id="g884">
	<defs
   id="defs877">
		<rect
   id="SVGID_1_"
   x="-0.3"
   y="0"
   width="40"
   height="27.7" />
	</defs>
	<clipPath
   id="SVGID_00000142158407801614603240000016489266035638276506_">
		<use
   xlink:href="#SVGID_1_"
   style="overflow:visible;"
   id="use879" />
	</clipPath>
	<path
   style="clip-path:url(#SVGID_00000142158407801614603240000016489266035638276506_);fill:#002855;"
   d="M24.1,11.9v-2h0V5.8   l-5.4,7L15.1,8v7.4l-2.9-3.7v10.2h1.5V16l1.4,1.8v4.1h1.5v-2.1l1.6,2.1v0h1.5v-5.5l1.4,1.8l1.6-2v5.7h0v0h1.5v-7.6l1.5-1.9v9.5h1.5   V8L24.1,11.9z M18.2,19.5l-1.6-2.1v-5l1.6,2.1V19.5z M21.1,15.8L19.7,14v0l3-3.8v3.7L21.1,15.8z"
   clip-path="url(#SVGID_00000142158407801614603240000016489266035638276506_)"
   id="path882" />
</g>
</svg>