<?xml version="1.0" encoding="utf-8"?>
<!-- Generator: Adobe Illustrator 26.0.2, SVG Export Plug-In . SVG Version: 6.00 Build 0)  -->
<svg version="1.1" id="Layer_1" xmlns="http://www.w3.org/2000/svg" xmlns:xlink="http://www.w3.org/1999/xlink" x="0px" y="0px"
	 viewBox="0 0 39 27" style="enable-background:new 0 0 39 27;" xml:space="preserve">
<style type="text/css">
	.st0{fill:#B8C9DB;}
	.st1{clip-path:url(#SVGID_00000060744704791741351910000013992484146334313404_);fill:#002855;}
</style>
<rect x="-0.5" y="-0.5" class="st0" width="40.2" height="28.2"/>
<g>
	<defs>
		<rect id="SVGID_1_" x="-0.3" y="0" width="40" height="27.7"/>
	</defs>
	<clipPath id="SVGID_00000106841402345938881670000005107051193176860548_">
		<use xlink:href="#SVGID_1_"  style="overflow:visible;"/>
	</clipPath>
	<path style="clip-path:url(#SVGID_00000106841402345938881670000005107051193176860548_);fill:#002855;" d="M25.1,16.4v-3.9
		l1.3,3.9h0.7l1.3-4v4h0.9v-5.1h-1.2l-1.3,3.9l-1.3-3.9h-1.2v5.1H25.1z M20.2,12h1.1c0.3,0,0.5,0.1,0.7,0.2s0.3,0.3,0.3,0.6
		c0,0.3-0.1,0.5-0.3,0.6c-0.2,0.1-0.4,0.2-0.8,0.2h-1V12z M20.2,16.4v-2.1h1.2l0.9,2.1h0.9l-1-2.2c0.2-0.1,0.3-0.2,0.5-0.3
		c0.1-0.1,0.3-0.3,0.3-0.4c0.1-0.2,0.1-0.4,0.1-0.7c0-0.3-0.1-0.5-0.2-0.8c-0.1-0.2-0.3-0.4-0.6-0.5c-0.3-0.1-0.6-0.2-1-0.2h-2.1
		v5.1H20.2z M18.3,16.4v-0.7l-2.5,0v-1.4h2.2v-0.7h-2.2V12h2.5l0-0.7h-3.3v5.1H18.3z M12.5,16.4v-4.3H14v-0.8H10v0.8h1.6v4.3H12.5z"
		/>
</g>
</svg>
