<?xml version="1.0" encoding="utf-8"?>
<!-- Generator: Adobe Illustrator 26.0.2, SVG Export Plug-In . SVG Version: 6.00 Build 0)  -->
<svg version="1.1" id="Layer_1" xmlns="http://www.w3.org/2000/svg" xmlns:xlink="http://www.w3.org/1999/xlink" x="0px" y="0px"
	 viewBox="0 0 30 30" style="enable-background:new 0 0 30 30;" xml:space="preserve">
<style type="text/css">
	.st0{fill:#FFFFFF;}
</style>
<g>
	<path class="st0" d="M23,9.2c0.8-0.1,1.6-0.3,2.5-0.7c-0.6,0.9-1.3,1.6-2.2,2.2c0,0.1,0,0.3,0,0.6c0,1.2-0.2,2.3-0.5,3.5
		C22.5,15.9,22,17,21.3,18c-0.7,1.1-1.5,2-2.5,2.8c-1,0.8-2.1,1.5-3.4,1.9c-1.3,0.5-2.8,0.7-4.3,0.7c-2.4,0-4.6-0.6-6.6-1.9
		c0.3,0,0.7,0.1,1,0.1c2,0,3.8-0.6,5.3-1.8c-0.9,0-1.8-0.3-2.5-0.9c-0.7-0.6-1.2-1.3-1.5-2.1c0.3,0,0.6,0.1,0.8,0.1
		c0.4,0,0.8,0,1.1-0.1c-1-0.2-1.8-0.7-2.5-1.5c-0.7-0.8-1-1.7-1-2.7v-0.1C6,12.8,6.6,13,7.3,13c-0.6-0.4-1.1-0.9-1.4-1.5
		c-0.3-0.6-0.5-1.3-0.5-2c0-0.8,0.2-1.5,0.6-2.2c1.1,1.3,2.4,2.4,3.9,3.2c1.5,0.8,3.2,1.2,4.9,1.3c-0.1-0.3-0.1-0.7-0.1-1
		c0-1.2,0.4-2.2,1.3-3c0.8-0.8,1.9-1.3,3-1.3c1.2,0,2.3,0.5,3.1,1.4c1-0.2,1.9-0.5,2.7-1C24.6,7.8,23.9,8.6,23,9.2"/>
</g>
</svg>
