<?xml version="1.0" encoding="utf-8"?>
<!-- Generator: Adobe Illustrator 26.0.2, SVG Export Plug-In . SVG Version: 6.00 Build 0)  -->
<svg version="1.1" id="Layer_1" xmlns="http://www.w3.org/2000/svg" xmlns:xlink="http://www.w3.org/1999/xlink" x="0px" y="0px"
	 viewBox="0 0 39 27" style="enable-background:new 0 0 39 27;" xml:space="preserve">
<style type="text/css">
	.st0{fill:#B8C9DB;}
	.st1{clip-path:url(#SVGID_00000163793200992619283990000009392037877183826582_);}
	.st2{clip-path:url(#SVGID_00000065037695558136389010000014818823619604687007_);fill:#002855;}
</style>
<rect x="-0.5" y="-0.5" class="st0" width="40.2" height="28.2"/>
<g>
	<defs>
		<rect id="SVGID_1_" x="-0.3" y="0" width="40" height="27.7"/>
	</defs>
	<clipPath id="SVGID_00000080191985441996143810000007640974439008505756_">
		<use xlink:href="#SVGID_1_"  style="overflow:visible;"/>
	</clipPath>
	<g style="clip-path:url(#SVGID_00000080191985441996143810000007640974439008505756_);">
		<defs>
			<rect id="SVGID_00000158018150288400833020000011941911759981905082_" x="14.2" y="11.3" width="10.9" height="5.1"/>
		</defs>
		<clipPath id="SVGID_00000089569099094902610480000009785159583135470003_">
			<use xlink:href="#SVGID_00000158018150288400833020000011941911759981905082_"  style="overflow:visible;"/>
		</clipPath>
		<path style="clip-path:url(#SVGID_00000089569099094902610480000009785159583135470003_);fill:#002855;" d="M25.2,11.3h-0.9v5.1
			h0.9V11.3z M20.2,11.9h1.1c0.3,0,0.5,0.1,0.7,0.2c0.2,0.1,0.3,0.3,0.3,0.6c0,0.3-0.1,0.5-0.3,0.6c-0.2,0.2-0.4,0.2-0.8,0.2h-1
			V11.9z M20.2,16.3v-2.1h1.2l0.9,2.1h0.9l-1-2.2c0.2-0.1,0.3-0.2,0.5-0.3c0.1-0.1,0.3-0.3,0.3-0.4c0.1-0.2,0.1-0.4,0.1-0.7
			c0-0.3-0.1-0.5-0.2-0.8c-0.1-0.2-0.3-0.4-0.6-0.5c-0.3-0.1-0.6-0.2-1-0.2h-2.1v5.1H20.2z M17.3,16.2c0.3-0.2,0.5-0.4,0.6-0.7
			c0.1-0.3,0.2-0.6,0.2-1v-3.2h-0.9v3.3c0,0.3,0,0.5-0.1,0.6c-0.1,0.2-0.2,0.3-0.4,0.4c-0.2,0.1-0.4,0.1-0.6,0.1
			c-0.3,0-0.6-0.1-0.8-0.3c-0.2-0.2-0.3-0.5-0.3-0.9v-3.3h-0.9v3.2c0,0.4,0.1,0.8,0.2,1.1c0.1,0.3,0.3,0.5,0.6,0.7
			c0.3,0.2,0.7,0.2,1.1,0.2C16.6,16.4,17,16.3,17.3,16.2"/>
	</g>
</g>
</svg>
